<mxfile host="app.diagrams.net" modified="2024-02-19T15:50:36.912Z" agent="Mozilla/5.0 (Windows NT 10.0; Win64; x64) AppleWebKit/537.36 (KHTML, like Gecko) Chrome/121.0.0.0 Safari/537.36" version="23.1.5" etag="7CrMt3HnngoKDV5XXV8a" type="github">
  <diagram name="PÃ¡gina-1" id="vCueNZOR98BW5jf2nDqj">
    <mxGraphModel>
      <root>
        <mxCell id="0" />
        <mxCell id="1" parent="0" />
      </root>
    </mxGraphModel>
  </diagram>
</mxfile>
